<?xml version="1.0" encoding="UTF-8" standalone="no"?>
<!DOCTYPE svg PUBLIC "-//W3C//DTD SVG 1.0//EN"
"http://www.w3.org/TR/2001/REC-SVG-20010904/DTD/svg10.dtd">
<!-- Created with Sodipodi ("http://www.sodipodi.com/") -->
<svg
   id="svg602"
   sodipodi:version="0.34"
   xmlns="http://www.w3.org/2000/svg"
   xmlns:sodipodi="http://sodipodi.sourceforge.net/DTD/sodipodi-0.dtd"
   xmlns:xlink="http://www.w3.org/1999/xlink"
   width="210mm"
   height="297mm"
   xml:space="preserve"
   sodipodi:docbase="/home/agea/Agea/zoo"
   sodipodi:docname="/home/agea/Agea/zoo/pesce.svg"><defs
   id="defs604"><linearGradient
   id="linearGradient679"><stop
   style="stop-color:#0c72c5;stop-opacity:0;"
   offset="0"
   id="stop680" /><stop
   style="stop-color:#8fcdff;stop-opacity:0.3098;"
   offset="1"
   id="stop681" /></linearGradient><linearGradient
   id="linearGradient669"><stop
   style="stop-color:#2effff;stop-opacity:1;"
   offset="0"
   id="stop670" /><stop
   style="stop-color:#3f5dff;stop-opacity:1;"
   offset="1"
   id="stop671" /></linearGradient><linearGradient
   id="linearGradient654"><stop
   style="stop-color:#ffffff;stop-opacity:0;"
   offset="0"
   id="stop655" /><stop
   style="stop-color:#ffffff;stop-opacity:0.7412;"
   offset="1"
   id="stop656" /></linearGradient><radialGradient
   xlink:href="#linearGradient669"
   id="radialGradient657"
   cx="0.5"
   cy="0.5"
   r="0.49999997"
   fx="0.5"
   fy="0.5" /><linearGradient
   xlink:href="#linearGradient654"
   id="linearGradient658"
   x1="2.12772842e-2"
   y1="0.546875"
   x2="1.00000036"
   y2="0.5546875"
   spreadMethod="pad" /><linearGradient
   xlink:href="#linearGradient654"
   id="linearGradient663"
   x1="0.55311352"
   y1="0.84692764"
   x2="0.85714275"
   y2="0.15306085" /><linearGradient
   xlink:href="#linearGradient654"
   id="linearGradient665"
   x1="0.47252741"
   y1="8.16321373e-2"
   x2="0.6996336"
   y2="0.9795922" /><radialGradient
   xlink:href="#linearGradient679"
   id="radialGradient678"
   cx="0.49999994"
   cy="0.49999997"
   r="0.5"
   fx="0.49999994"
   fy="0.49999997" /><radialGradient
   xlink:href="#linearGradient679"
   id="radialGradient682" /><radialGradient
   xlink:href="#linearGradient679"
   id="radialGradient683" /><radialGradient
   xlink:href="#linearGradient679"
   id="radialGradient684" /></defs><sodipodi:namedview
   id="base"><sodipodi:guide
   orientation="vertical"
   position="-168.930161"
   id="guide623" /></sodipodi:namedview><path
   sodipodi:type="arc"
   style="fill-rule:evenodd;stroke:none;fill:url(#radialGradient657);fill-opacity:1;stroke-opacity:1;stroke-width:1pt;stroke-linejoin:miter;stroke-linecap:butt;"
   id="path668"
   d="M 652.4386 571.1549 A 265.9838 265.9838 0 1 0 120.471 571.1549 A 265.9838 265.9838 0 1 0  652.4386 571.1549 z"
   sodipodi:cx="386.454803"
   sodipodi:cy="571.154907"
   sodipodi:rx="265.983795"
   sodipodi:ry="265.983795"
   transform="matrix(1.05089,0,0,1.043257,-19.66692,-24.02972)" /><path
   style="font-size:12;fill:#dc4210;fill-rule:evenodd;stroke:#eaffa0;stroke-width:8.25;stroke-dasharray:none;fill-opacity:1;stroke-opacity:1;stroke-linecap:round;stroke-linejoin:round;"
   d="M 595.1808 735.3921 C 595.2936 734.538 595.3814 733.7925 595.4733 732.9083 C 600.7101 682.4838 563.4646 637.1774 513.0401 631.9406 C 462.6158 626.7037 417.4935 663.3354 412.2567 713.7598 C 407.0198 764.1842 443.6516 809.3065 493.9961 814.6813 C 426.9615 844.7145 354.144 844.7214 290.5939 820.4715 C 258.8189 808.3465 229.3608 790.1573 204.1009 766.625 C 191.471 754.8588 179.8906 741.7569 169.595 727.4093 C 164.4471 720.2355 159.6205 712.7504 155.1444 704.965 C 152.9064 701.0724 150.756 697.1046 148.6969 693.0634 C 146.6378 689.022 189.1058 739.0393 180.5428 669.6556 C 176.2235 640.575 139.1689 672.3229 137.5291 668.0941 C 135.8892 663.8653 134.3651 659.6174 132.9553 655.3543 C 130.1358 646.8281 127.7737 638.2405 125.8577 629.6212 C 122.0257 612.3824 119.9784 595.0164 119.6257 577.7582 C 118.9205 543.2419 124.9941 509.1575 137.1277 477.3875 C 161.3949 413.8474 209.9018 359.5649 276.8966 329.6007 C 344.1193 299.5346 412.1691 297.7281 481.0301 324.1626 C 438.6706 334.8283 410.3535 372.4279 411.8167 416.2244 C 413.5096 466.8917 455.9558 506.5934 506.6231 504.9006 C 557.2904 503.2078 597.587 460.6293 595.9149 409.9823 C 671.0795 507.5323 670.7764 638.2122 595.1808 735.3921 z "
   id="path630"
   sodipodi:nodetypes="cccccssssssssssscccccc" /><path
   sodipodi:type="arc"
   style="fill-rule:evenodd;stroke:#eaffa0;fill:#ffffff;fill-opacity:1;stroke-opacity:1;stroke-width:8.4115;stroke-linejoin:miter;stroke-linecap:butt;stroke-dasharray:none;"
   id="path632"
   d="M 272.4406 601.6272 A 67.48528 67.48526 0 1 0 137.47 601.6272 A 67.48528 67.48526 0 1 0  272.4406 601.6272 z"
   sodipodi:cx="204.955292"
   sodipodi:cy="601.627197"
   sodipodi:rx="67.4852829"
   sodipodi:ry="67.48526"
   transform="matrix(0.802469,0,0,0.802469,19.65621,113.8408)" /><path
   sodipodi:type="arc"
   style="fill-rule:evenodd;stroke:#000000;fill:#000000;fill-opacity:1;stroke-opacity:1;stroke-width:1pt;stroke-linejoin:miter;stroke-linecap:butt;"
   id="path633"
   d="M 272.4406 601.6272 A 67.48528 67.48526 0 1 0 137.47 601.6272 A 67.48528 67.48526 0 1 0  272.4406 601.6272 z"
   sodipodi:cx="204.955292"
   sodipodi:cy="601.627197"
   sodipodi:rx="67.4852829"
   sodipodi:ry="67.48526"
   transform="matrix(0.234568,0,0,0.234568,170.2096,460.5043)" /><path
   style="font-size:12;fill:none;fill-rule:evenodd;stroke:#eaffa0;stroke-width:8.25;stroke-linecap:round;stroke-linejoin:round;stroke-dasharray:none;stroke-opacity:1;"
   d="M 292.5147 505.2415 C 316.3141 492.7857 330.501 475.8951 329.2719 457.5426 C 439.7062 528.2391 439.2611 622.9456 328.1936 693.3739 C 328.2766 693.0644 328.3505 692.7745 328.4203 692.4819 C 328.4904 692.1893 328.5564 691.894 328.6239 691.5737 C 332.4712 673.3017 320.714 655.9572 298.7346 642.7062 "
   id="path649"
   sodipodi:nodetypes="cccscs" /><path
   style="fill:url(#linearGradient658);fill-rule:nonzero;stroke:none;stroke-opacity:1;stroke-width:1pt;stroke-linejoin:miter;stroke-linecap:butt;fill-opacity:1;"
   d="M 599.9278 422.7872 C 668.1046 517.8853 659.5167 640.6438 599.9278 721.4502 C 598.6973 684.4329 580.3937 652.9529 539.6595 633.7393 C 539.6595 589.7536 538.7494 547.588 538.7494 503.6023 C 577.8816 475.9974 592.4937 465.8117 599.9278 422.7872 z "
   id="path653"
   sodipodi:nodetypes="ccccc" /><path
   style="fill:url(#linearGradient658);fill-rule:nonzero;stroke:none;stroke-opacity:1;stroke-width:1pt;stroke-linejoin:miter;stroke-linecap:butt;fill-opacity:1;"
   d="M 334.8168 466.111 C 439.9438 535.7417 426.7015 625.6252 334.8168 684.7915 C 332.9194 657.6875 308.0281 640.4699 294.373 637.2328 C 294.373 605.0266 290.4703 539.1607 290.4703 506.9545 C 314.1523 495.9069 323.3536 497.6135 334.8168 466.111 z "
   id="path659"
   sodipodi:nodetypes="ccccc" /><path
   style="fill:url(#linearGradient663);fill-rule:evenodd;stroke:none;stroke-opacity:1;stroke-width:1pt;stroke-linejoin:miter;stroke-linecap:butt;fill-opacity:1;"
   d="M 177.4672 411.6716 C 206.7573 371.7477 266.3919 329.7607 329.0187 316.0622 C 382.7342 303.9569 425.718 309.8972 468.2222 323.7696 C 417.6748 344.1952 406.3003 395.8387 406.578 413.3349 C 330.7612 413.0573 253.2841 411.9493 177.4672 411.6716 z "
   id="path662"
   sodipodi:nodetypes="csccc" /><path
   style="fill:url(#linearGradient665);fill-rule:evenodd;stroke:none;stroke-opacity:1;stroke-width:1pt;stroke-linejoin:miter;stroke-linecap:butt;fill-opacity:1;"
   d="M 176.51 731.5107 C 206.0367 771.4346 262.0911 812.7666 327.8498 827.5987 C 384.5543 839.91 441.1229 832.8066 479.6632 816.0627 C 422.486 801.38 409.1054 746.8651 406.9925 726.4974 C 366.4565 728.2107 252.9393 731.233 176.51 731.5107 z "
   id="path664"
   sodipodi:nodetypes="csccc" /><path
   style="font-size:12;fill:none;fill-rule:evenodd;stroke:#eaffa0;stroke-width:8.75;stroke-dasharray:none;fill-opacity:1;stroke-opacity:1;stroke-linecap:round;stroke-linejoin:round;"
   d="M 595.1808 735.3921 C 595.2936 734.538 595.3814 733.7925 595.4733 732.9083 C 600.7101 682.4838 563.4646 637.1774 513.0401 631.9406 C 462.6158 626.7037 417.4935 663.3354 412.2567 713.7598 C 407.0198 764.1842 443.6516 809.3065 493.9961 814.6813 C 426.9615 844.7145 354.144 844.7214 290.5939 820.4715 C 258.8189 808.3465 229.3608 790.1573 204.1009 766.625 C 191.471 754.8588 179.8906 741.7569 169.595 727.4093 C 164.4471 720.2355 159.6205 712.7504 155.1444 704.965 C 152.9064 701.0724 150.756 697.1046 148.6969 693.0634 C 146.6378 689.022 189.1058 739.0393 180.5428 669.6556 C 176.2235 640.575 139.1689 672.3229 137.5291 668.0941 C 135.8892 663.8653 134.3651 659.6174 132.9553 655.3543 C 130.1358 646.8281 127.7737 638.2405 125.8577 629.6212 C 122.0257 612.3824 119.9784 595.0164 119.6257 577.7582 C 118.9205 543.2419 124.9941 509.1575 137.1277 477.3875 C 161.3949 413.8474 209.9018 359.5649 276.8966 329.6007 C 344.1193 299.5346 412.1691 297.7281 481.0301 324.1626 C 438.6706 334.8283 410.3535 372.4279 411.8167 416.2244 C 413.5096 466.8917 455.9558 506.5934 506.6231 504.9006 C 557.2904 503.2078 597.587 460.6293 595.9149 409.9823 C 671.0795 507.5323 670.7764 638.2122 595.1808 735.3921 z "
   id="path672"
   sodipodi:nodetypes="cccccssssssssssscccccc" /><path
   sodipodi:type="arc"
   style="fill-rule:evenodd;stroke:none;fill:url(#radialGradient684);fill-opacity:1;stroke-opacity:1;stroke-width:1pt;stroke-linejoin:miter;stroke-linecap:butt;"
   id="path673"
   d="M 273.4286 656.4321 A 18.27369 18.27368 0 1 0 236.8813 656.4321 A 18.27369 18.27368 0 1 0  273.4286 656.4321 z"
   sodipodi:cx="255.154938"
   sodipodi:cy="656.432129"
   sodipodi:rx="18.2736893"
   sodipodi:ry="18.2736816"
   transform="translate(-31.13296,5.414398)" /><path
   sodipodi:type="arc"
   style="fill-rule:evenodd;stroke:none;fill:url(#radialGradient683);fill-opacity:1;stroke-opacity:1;stroke-width:1pt;stroke-linejoin:miter;stroke-linecap:butt;"
   id="path674"
   d="M 273.4286 656.4321 A 18.27369 18.27368 0 1 0 236.8813 656.4321 A 18.27369 18.27368 0 1 0  273.4286 656.4321 z"
   sodipodi:cx="255.154938"
   sodipodi:cy="656.432129"
   sodipodi:rx="18.2736893"
   sodipodi:ry="18.2736816"
   transform="matrix(1.666666,0,0,1.666667,-138.9703,-501.241)" /><path
   sodipodi:type="arc"
   style="fill-rule:evenodd;stroke:none;fill:url(#radialGradient682);fill-opacity:1;stroke-opacity:1;stroke-width:1pt;stroke-linejoin:miter;stroke-linecap:butt;"
   id="path676"
   d="M 273.4286 656.4321 A 18.27369 18.27368 0 1 0 236.8813 656.4321 A 18.27369 18.27368 0 1 0  273.4286 656.4321 z"
   sodipodi:cx="255.154938"
   sodipodi:cy="656.432129"
   sodipodi:rx="18.2736893"
   sodipodi:ry="18.2736816"
   transform="matrix(3.333333,0,0,3.333334,-591.9776,-1705.614)" /><path
   sodipodi:type="arc"
   style="fill-rule:evenodd;stroke:none;fill:url(#radialGradient678);fill-opacity:0.3418;stroke-opacity:1;stroke-width:1pt;stroke-linejoin:miter;stroke-linecap:butt;"
   id="path677"
   d="M 273.4286 656.4321 A 18.27369 18.27368 0 1 0 236.8813 656.4321 A 18.27369 18.27368 0 1 0  273.4286 656.4321 z"
   sodipodi:cx="255.154938"
   sodipodi:cy="656.432129"
   sodipodi:rx="18.2736893"
   sodipodi:ry="18.2736816"
   transform="matrix(3.851852,0,0,3.851853,-601.1021,-2158.336)" /></svg>
