<?xml version="1.0" encoding="UTF-8" standalone="no"?>
<!DOCTYPE svg PUBLIC "-//W3C//DTD SVG 20010904//EN"
"http://www.w3.org/TR/2001/REC-SVG-20010904/DTD/svg10.dtd">
<!-- Created with Sodipodi ("http://www.sodipodi.com/") -->
<svg
   xmlns="http://www.w3.org/2000/svg"
   xmlns:sodipodi="http://sodipodi.sourceforge.net/DTD/sodipodi-0.dtd"
   xmlns:xlink="http://www.w3.org/1999/xlink"
   id="svg602"
   sodipodi:version="0.34"
   width="370.28pt"
   height="234.89pt"
   xml:space="preserve"
   sodipodi:docbase="/home/agea/Agea/zoo"
   sodipodi:docname="/home/agea/Agea/zoo/struzzo_logo.svg"><defs
   id="defs604"><linearGradient
   id="linearGradient640"><stop
   style="stop-color:#0035dd;stop-opacity:0.8863;"
   offset="0"
   id="stop641" /><stop
   style="stop-color:#008cff;stop-opacity:0.5294;"
   offset="1"
   id="stop642" /></linearGradient><linearGradient
   xlink:href="#linearGradient640"
   id="linearGradient643"
   x1="0.62706125"
   y1="0.93593562"
   x2="0.79141921"
   y2="-0.75492966" /><linearGradient
   xlink:href="#linearGradient640"
   id="linearGradient661"
   x1="0.5272916"
   y1="1.09813285"
   x2="0.64886802"
   y2="-0.15260901"
   gradientTransform="scale(1.145795,0.872756)" /><linearGradient
   xlink:href="#linearGradient640"
   id="linearGradient663"
   x1="0.34065753"
   y1="1.08333313"
   x2="0.46886438"
   y2="1.19047128e-2" /><linearGradient
   xlink:href="#linearGradient640"
   id="linearGradient664"
   x1="0.48446143"
   y1="1.19616413"
   x2="0.59212005"
   y2="8.86049271e-2"
   gradientTransform="scale(1.238069,0.80771)" /><linearGradient
   xlink:href="#linearGradient640"
   id="linearGradient665"
   x1="0.38209793"
   y1="1.2249018"
   x2="0.41962659"
   y2="0.11716501"
   gradientTransform="scale(1.363338,0.733494)" /><linearGradient
   xlink:href="#linearGradient640"
   id="linearGradient668"
   x1="0.42050499"
   y1="1.08562434"
   x2="0.46190241"
   y2="-0.13630572"
   gradientTransform="scale(1.238069,0.80771)" /><radialGradient
   xlink:href="#linearGradient640"
   id="radialGradient669"
   cx="0.82375479"
   cy="0.66406286"
   r="0.60998154"
   fx="0.82375479"
   fy="0.66406286" /></defs><sodipodi:namedview
   id="base"><sodipodi:guide
   orientation="horizontal"
   position="79.4724731"
   id="guide659" /></sodipodi:namedview><path
   transform="matrix(0.953488,0,0,0.912791,6.441262,29.00748)"
   style="font-size:12;fill:url(#linearGradient664);fill-opacity:0.8165;stroke:none;stroke-width:4.125;stroke-linecap:round;stroke-linejoin:round;"
   d="M 373.675 145.3199 C 370.4886 225.2281 303.1271 287.4234 223.2189 284.2369 C 147.5394 281.2191 87.59875 221.4828 84.32246 145.8141 L 134.582 143.6045 C 160.4533 142.4671 203.4844 148.2089 228.9885 147.8511 C 253.1814 147.5117 288.2912 139.9792 312.81 141.5128 L 373.675 145.3199 z "
   id="path667"
   sodipodi:nodetypes="cccsssc" /><g
   id="g635"
   transform="matrix(1.175868,0,0,1.175868,-44.34505,-9.937889)"><path
   style="font-size:12;fill:#486735;fill-rule:evenodd;stroke:#000000;stroke-width:1;fill-opacity:1;"
   d="M 234.6996 101.6009 C 232.1332 87.48704 238.339 83.31394 241.6661 70.0572 C 245.5239 54.5564 232.0978 63.2187 230.6036 61.2503 C 228.4261 58.3816 226.6025 51.092 232.411 48.0494 C 248.1484 41.9279 237.655 38.3659 225.1293 43.6323 C 212.6099 48.8547 194.4796 49.9176 194.9558 52.9581 C 195.1459 56.8799 205.5098 55.5109 205.6594 58.6756 C 207.1462 65.5655 185.5367 61.2644 198.3394 81.3265 C 198.6418 81.9077 203.205 89.51014 204.1276 91.19804 C 205.4932 93.69644 206.9418 95.90854 208.0355 98.57114 C 209.6204 102.4294 227.57 143.9608 219.1244 246.559 C 219.0507 251.5707 236.0879 252.6668 239.0048 252.7679 C 242.6264 252.8933 253.6468 249.928 251.9787 246.5824 C 233.0559 119.3522 235.2929 104.3582 234.6996 101.6009 z "
   id="path626"
   sodipodi:nodetypes="csccsccccccccc" /><path
   style="fill:#ccb01d;fill-rule:evenodd;stroke:black;stroke-opacity:1;stroke-width:1pt;stroke-linejoin:miter;stroke-linecap:butt;fill-opacity:1;"
   d="M 207.1318 68.2721 C 203.7413 69.5356 198.8236 69.6314 198.8289 74.281 C 198.8311 76.1504 204.9593 74.103 205.7506 73.8093 C 211.1818 71.793 214.61 71.123 220.3789 71.123 C 225.6077 71.123 226.5992 70.4866 231.786 72.5871 C 232.962 73.0633 238.1295 73.9695 238.8168 72.6252 C 241.3077 67.7531 234.5415 66.6091 231.3601 66.6091 C 227.5714 66.6091 228.5097 58.9388 216.7739 60.5154 C 209.4223 61.4774 212.119 66.4135 207.1318 68.2721 z "
   id="path616"
   sodipodi:nodetypes="cccccccsc" /><path
   style="fill:none;fill-rule:evenodd;stroke:black;stroke-opacity:1;stroke-width:1pt;stroke-linejoin:miter;stroke-linecap:butt;fill-opacity:1;"
   d="M 206.2783 82.85884 C 206.2783 78.9546 206.2203 77.166 210.4086 75.325 C 211.0452 75.0451 211.9546 74.8097 212.6377 74.7225 "
   id="path613" /><path
   style="fill:none;fill-rule:evenodd;stroke:black;stroke-opacity:1;stroke-width:1pt;stroke-linejoin:miter;stroke-linecap:butt;fill-opacity:1;"
   d="M 231.5556 80.8276 C 231.5556 79.1358 228.6063 72.8534 226.5646 73.3754 "
   id="path614" /><path
   style="font-size:12;fill:none;fill-rule:evenodd;stroke:#000000;stroke-width:0.857418;"
   d="M 201.1381 73.1034 C 202.9351 72.4075 203.8485 70.7855 206.1072 70.1812 C 210.6074 68.9774 218.7412 69.2083 223.6759 69.1927 C 229.9472 69.1726 232.0484 67.9791 237.2343 71.7667 "
   id="path615" /><path
   style="fill:#000000;fill-rule:evenodd;stroke:black;stroke-opacity:1;stroke-width:1pt;stroke-linejoin:miter;stroke-linecap:butt;fill-opacity:1;"
   d="M 214.6288 63.2237 C 213.8543 63.611 211.3628 66.8118 213.3484 66.8319 C 214.2323 66.8409 216.821 64.3283 214.6288 63.2237 z "
   id="path617" /><path
   style="fill:#000000;fill-rule:evenodd;stroke:black;stroke-opacity:1;stroke-width:1pt;stroke-linejoin:miter;stroke-linecap:butt;fill-opacity:1;"
   d="M 222.9794 62.998 C 221.032 63.9719 222.1022 65.6395 224.0497 65.7038 C 225.8609 65.7635 223.968 64.2425 222.9794 62.998 z "
   id="path618" /><path
   sodipodi:type="arc"
   style="fill-rule:evenodd;stroke:#000000;fill:#ff7900;fill-opacity:1;stroke-opacity:1;stroke-width:1.9981;stroke-linejoin:miter;stroke-linecap:butt;stroke-dasharray:none;"
   id="path627"
   d="M 221.7618 317.7913 A 8.006058 7.885666 0 1 0 205.7497 317.7913 A 8.006058 7.885666 0 1 0  221.7618 317.7913 z"
   sodipodi:cx="213.755722"
   sodipodi:cy="317.791321"
   sodipodi:rx="8.00605774"
   sodipodi:ry="7.88566589"
   transform="matrix(0.816795,0,0,0.816794,25.18873,-197.9309)" /><path
   style="font-size:12;fill:none;fill-rule:evenodd;stroke:#000000;stroke-width:2.8875;stroke-dasharray:none;stroke-linecap:round;"
   d="M 210.5561 58.2807 C 210.7892 51.8467 198.0787 48.5082 194.7437 52.9598 "
   id="path634"
   sodipodi:nodetypes="cc" /><path
   style="font-size:12;fill:none;fill-rule:evenodd;stroke:#000000;stroke-width:4.047987;stroke-linecap:round;stroke-linejoin:round;"
   d="M 221.3722 50.9858 C 221.2201 43.674 234.1668 38.3084 240.0232 42.4385 "
   id="path635"
   sodipodi:nodetypes="cc" /><path
   sodipodi:type="arc"
   style="fill-rule:evenodd;stroke:#000000;fill:#ff7900;fill-opacity:1;stroke-opacity:1;stroke-width:1.9981;stroke-linejoin:miter;stroke-linecap:butt;stroke-dasharray:none;"
   id="path636"
   d="M 221.7618 317.7913 A 8.006058 7.885666 0 1 0 205.7497 317.7913 A 8.006058 7.885666 0 1 0  221.7618 317.7913 z"
   sodipodi:cx="213.755722"
   sodipodi:cy="317.791321"
   sodipodi:rx="8.00605774"
   sodipodi:ry="7.88566589"
   transform="matrix(1.105856,0,0,1.105854,-0.809381,-296.0909)" /><path
   sodipodi:type="arc"
   style="fill-rule:evenodd;stroke:none;fill:#000000;fill-opacity:1;stroke-opacity:1;stroke-width:1pt;stroke-linejoin:miter;stroke-linecap:butt;"
   id="path628"
   d="M 217.8913 313.9367 A 1.145287 1.145325 0 1 0 215.6007 313.9367 A 1.145287 1.145325 0 1 0  217.8913 313.9367 z"
   sodipodi:cx="216.746033"
   sodipodi:cy="313.936737"
   sodipodi:rx="1.14528656"
   sodipodi:ry="1.14532471"
   transform="matrix(1.148087,0,0,1.148082,-49.05986,-298.7859)" /><path
   sodipodi:type="arc"
   style="fill-rule:evenodd;stroke:none;fill:#000000;fill-opacity:1;stroke-opacity:1;stroke-width:1pt;stroke-linejoin:miter;stroke-linecap:butt;"
   id="path629"
   d="M 217.8913 313.9367 A 1.145287 1.145325 0 1 0 215.6007 313.9367 A 1.145287 1.145325 0 1 0  217.8913 313.9367 z"
   sodipodi:cx="216.746033"
   sodipodi:cy="313.936737"
   sodipodi:rx="1.14528656"
   sodipodi:ry="1.14532471"
   transform="matrix(1.29619,0,0,1.296164,-45.37034,-351.5734)" /></g><path
   transform="matrix(0.953488,0,0,0.912791,6.441262,29.00748)"
   style="font-size:12;fill:url(#linearGradient661);fill-rule:nonzero;stroke:none;stroke-width:4.125;stroke-linecap:round;stroke-linejoin:round;stroke-opacity:1;fill-opacity:0.7722;"
   d="M 367.4662 181.8754 C 344.0908 258.3545 263.1426 301.4036 186.6635 278.0281 C 139.1752 263.5136 105.2218 229.6343 90.60355 182.1779 L 159.2365 172.7533 C 202.7016 161.9808 133.4488 203.1582 254.0627 170.0386 C 289.7302 160.487 235.1183 188.7535 311.8771 174.2916 C 359.8217 165.0922 325.4178 170.9307 358.2133 179.467 L 367.4662 181.8754 z "
   id="path660"
   sodipodi:nodetypes="ccccsssc" /><path
   style="font-size:12;fill:url(#linearGradient643);fill-opacity:0.7722;stroke:none;stroke-width:3.848285;stroke-linecap:round;stroke-linejoin:round;"
   d="M 112.0229 235.009 C 157.3801 293.6879 243.839 306.0567 305.1341 262.6354 C 317.5655 253.8291 326.8392 244.7548 335.7637 232.664 L 285.6997 223.1495 C 237.4615 213.9821 312.0756 238.6357 183.9395 226.8072 C 110.2214 219.1602 159.4183 223.5131 130.052 230.636 L 112.0229 235.009 z "
   id="path662"
   sodipodi:nodetypes="cccsssc" /><path
   style="font-size:12;fill:url(#linearGradient663);fill-opacity:0.0759;stroke:none;stroke-width:3.848285;stroke-linecap:round;stroke-linejoin:round;"
   d="M 112.0229 235.009 C 157.3801 293.6879 243.839 306.0567 305.1341 262.6354 C 317.5655 253.8291 326.8392 244.7548 335.7637 232.664 L 285.6997 223.1495 C 237.4615 213.9821 312.0756 238.6357 183.9395 226.8072 C 110.2214 219.1602 159.4183 223.5131 130.052 230.636 L 112.0229 235.009 z "
   id="path670"
   sodipodi:nodetypes="cccsssc" /><path
   sodipodi:type="arc"
   style="fill-rule:evenodd;stroke:#ffad3a;fill:none;fill-opacity:1;stroke-opacity:1;stroke-width:7.3426;stroke-linejoin:round;stroke-linecap:round;stroke-dasharray:none;"
   id="path625"
   d="M 373.79 139.5504 A 144.8015 144.8015 0 1 0 84.18692 139.5504 A 144.8015 144.8015 0 1 0  373.79 139.5504 z"
   sodipodi:cx="228.988464"
   sodipodi:cy="139.550385"
   sodipodi:rx="144.801544"
   sodipodi:ry="144.801544"
   transform="matrix(0.953488,0,0,0.912791,6.441262,29.00748)" /></svg>
