<?xml version="1.0" encoding="UTF-8" standalone="no"?>
<!DOCTYPE svg PUBLIC "-//W3C//DTD SVG 20010904//EN"
"http://www.w3.org/TR/2001/REC-SVG-20010904/DTD/svg10.dtd">
<!-- Created with Sodipodi ("http://www.sodipodi.com/") -->
<svg
   xmlns="http://www.w3.org/2000/svg"
   xmlns:sodipodi="http://sodipodi.sourceforge.net/DTD/sodipodi-0.dtd"
   xmlns:xlink="http://www.w3.org/1999/xlink"
   id="svg602"
   sodipodi:version="0.34"
   width="104mm"
   height="74mm"
   xml:space="preserve"
   sodipodi:docbase="/home/agea/wforge/docs/images/"
   sodipodi:docname="/home/agea/wforge/docs/images/wifistrello_2.svg"><defs
   id="defs604"><linearGradient
   id="linearGradient752"><stop
   style="stop-color:#000000;stop-opacity:0.2275;"
   offset="0"
   id="stop753" /><stop
   style="stop-color:#d5d2ff;stop-opacity:0.7098;"
   offset="1"
   id="stop754" /></linearGradient><linearGradient
   xlink:href="#linearGradient752"
   id="linearGradient755"
   x1="1.55041348e-2"
   y1="0.97656274"
   x2="0.8062017"
   y2="0.16406274" /><linearGradient
   xlink:href="#linearGradient752"
   id="linearGradient756" /><radialGradient
   xlink:href="#linearGradient752"
   id="radialGradient733"
   cx="0.50381511"
   cy="0.51562333"
   r="0.48655355"
   fx="0.50381511"
   fy="0.51562333" /></defs><sodipodi:namedview
   id="base"><sodipodi:guide
   orientation="horizontal"
   position="866.020386"
   id="guide700" /></sodipodi:namedview><g
   id="g638"
   transform="translate(-173.8314,-154.0241)"><path
   style="font-size:12;fill:#a300dd;fill-rule:evenodd;stroke:#000000;stroke-width:2.836734;"
   d="M 335.4614 147.5912 C 341.0823 175.0476 405.8618 232.8708 436.3585 196.8081 C 425.2035 252.2265 463.3205 253.0842 503.4245 223.2832 C 392.1892 479.06 338.245 363.3758 335.4614 147.5912 z "
   id="path633"
   sodipodi:nodetypes="cccc"
   transform="translate(22.62199,37.70319)" /><path
   style="font-size:12;fill:#a300dd;fill-rule:evenodd;stroke:#000000;stroke-width:2.836734;"
   d="M 335.4614 147.5912 C 329.8405 175.0476 265.061 232.8708 234.5643 196.8081 C 245.7193 252.2265 207.6023 253.0842 167.4983 223.2832 C 278.7336 479.06 332.6778 363.3758 335.4614 147.5912 z "
   id="path632"
   sodipodi:nodetypes="cccc"
   transform="translate(22.62199,37.70319)" /><g
   id="g718"
   transform="matrix(-0.982491,0,0,-0.982491,697.7574,510.771)"
   style="font-size:12;"><path
   style="font-size:12;fill-rule:evenodd;stroke:#000000;stroke-width:1.47036;"
   d="M 315.4682 334.4272 C 315.4682 337.2992 309.0855 328.7592 304.7518 328.9651 C 300.517 328.9563 302.3457 335.5828 297.3396 335.5828 C 292.3335 335.5828 293.5262 328.9563 289.2915 328.9651 C 284.9576 328.7592 279.211 337.2992 279.211 334.4272 C 279.211 328.6836 287.3275 314.783 297.3396 314.783 C 307.3518 314.783 315.4682 328.6836 315.4682 334.4272 z "
   id="path648"
   sodipodi:nodetypes="cscsccc" /><path
   style="font-size:12;fill-rule:evenodd;stroke:#000000;stroke-width:1.47036;"
   d="M 412.5245 334.4272 C 412.5245 337.2992 406.1418 328.7592 401.8081 328.9651 C 397.5733 328.9563 399.402 335.5828 394.3959 335.5828 C 389.3898 335.5828 390.5825 328.9563 386.3478 328.9651 C 382.0139 328.7592 376.2673 337.2992 376.2673 334.4272 C 376.2673 328.6836 384.3838 314.783 394.3959 314.783 C 404.4081 314.783 412.5245 328.6836 412.5245 334.4272 z "
   id="path717"
   sodipodi:nodetypes="cscsccc" /></g><path
   style="font-size:12;fill:#a300dd;fill-rule:evenodd;stroke:#000000;stroke-width:3.343519;"
   d="M 419.4541 320.9202 C 419.7953 248.7197 415.4884 138.6289 337.2061 138.7571 C 246.1218 138.3492 252.9223 246.6307 252.9304 320.0896 C 281.2398 266.7057 388.9732 267.25 419.4541 320.9202 z "
   id="path606"
   sodipodi:nodetypes="cscc"
   transform="translate(22.62199,37.70319)" /><g
   id="g664"
   transform="matrix(-0.982491,0,0,-0.982491,703.1545,510.771)"
   style="font-size:12;stroke:#000000;stroke-width:3.25;"><path
   sodipodi:type="arc"
   style="font-size:12;fill-rule:evenodd;stroke:#000000;stroke-width:3.25;stroke-opacity:1;stroke-dasharray:none;"
   id="path612"
   d="M 237.2527 486.0052 A 33.84011 33.84013 0 1 0 169.5724 486.0052 A 33.84011 33.84013 0 1 0  237.2527 486.0052 z"
   sodipodi:cx="203.412537"
   sodipodi:cy="486.005188"
   sodipodi:rx="33.8401108"
   sodipodi:ry="33.8401337"
   transform="matrix(0.182825,0,0,0.438781,305.4098,69.35923)" /><path
   sodipodi:type="arc"
   style="font-size:12;fill-rule:evenodd;stroke:#000000;stroke-width:3.25;stroke-opacity:1;stroke-dasharray:none;"
   id="path614"
   d="M 237.2527 486.0052 A 33.84011 33.84013 0 1 0 169.5724 486.0052 A 33.84011 33.84013 0 1 0  237.2527 486.0052 z"
   sodipodi:cx="203.412537"
   sodipodi:cy="486.005188"
   sodipodi:rx="33.8401108"
   sodipodi:ry="33.8401337"
   transform="matrix(0.182825,0,0,0.438781,321.1588,69.35923)" /></g><path
   style="font-size:12;fill:#ffffff;fill-rule:evenodd;stroke:#000000;stroke-width:3.587017;"
   d="M 336.5342 210.3621 L 327.0438 187.2325 L 327.0438 187.2325 L 318.1317 210.3218 L 336.5342 210.3621 z "
   id="path660"
   sodipodi:nodetypes="ccccc" /><path
   sodipodi:type="arc"
   style="font-size:12;fill-rule:evenodd;stroke-width:1;"
   id="path649"
   d="M 335.1003 406.6811 A 30.20523 6.396393 0 1 0 274.6899 406.6811 A 30.20523 6.396393 0 1 0  335.1003 406.6811 z"
   sodipodi:cx="304.895111"
   sodipodi:cy="406.681091"
   sodipodi:rx="30.2052307"
   sodipodi:ry="6.39639282"
   transform="matrix(1,0,0,0.281634,19.39029,157.2792)" /><path
   sodipodi:type="arc"
   style="font-size:12;fill-rule:evenodd;stroke-width:1;"
   id="path650"
   d="M 335.1003 406.6811 A 30.20523 6.396393 0 1 0 274.6899 406.6811 A 30.20523 6.396393 0 1 0  335.1003 406.6811 z"
   sodipodi:cx="304.895111"
   sodipodi:cy="406.681091"
   sodipodi:rx="30.2052307"
   sodipodi:ry="6.39639282"
   transform="matrix(-1,0,0,0.281634,699.1855,157.2792)" /><path
   style="font-size:12;fill:#ffffff;fill-rule:evenodd;stroke:#000000;stroke-width:3.587017;"
   d="M 394.4605 210.3621 L 384.9701 187.2325 L 384.9701 187.2325 L 376.058 210.3218 L 394.4605 210.3621 z "
   id="path727"
   sodipodi:nodetypes="ccccc" /><rect
   style="font-size:12;fill:#000400;fill-rule:evenodd;stroke-width:1;fill-opacity:1;"
   id="rect728"
   width="72.1582336"
   height="3.74526978"
   x="319.843262"
   y="208.43541" /><path
   style="font-size:12;fill:url(#radialGradient733);fill-rule:evenodd;stroke-width:1;"
   d="M 444.1004 184.1374 C 456.3173 204.4988 449.7147 230.9088 429.3532 243.1256 C 408.9918 255.3425 368.7911 251.1736 363.064 241.3581 C 358.1481 233.165 364.7506 181.6071 385.112 169.3902 C 405.4735 157.1734 431.8835 163.776 444.1004 184.1374 z "
   id="path735"
   sodipodi:nodetypes="ccccc" /></g></svg>
